<?xml version="1.0" encoding="UTF-8"?>
<!DOCTYPE svg PUBLIC "-//W3C//DTD SVG 1.1//EN" "http://www.w3.org/Graphics/SVG/1.1/DTD/svg11.dtd">
<!-- Creator: CorelDRAW X7 -->
<svg xmlns="http://www.w3.org/2000/svg" xml:space="preserve" width="36.8139mm" height="25.4mm" version="1.1" style="shape-rendering:geometricPrecision; text-rendering:geometricPrecision; image-rendering:optimizeQuality; fill-rule:evenodd; clip-rule:evenodd"
viewBox="0 0 3681 2540"
 xmlns:xlink="http://www.w3.org/1999/xlink">
 <defs>
  <style type="text/css">
   <![CDATA[
    .fil2 {fill:#E6E6E6}
    .fil0 {fill:#E6E6E6;fill-rule:nonzero}
    .fil1 {fill:white;fill-rule:nonzero}
   ]]>
  </style>
 </defs>
 <g id="Capa_x0020_1">
  <metadata id="CorelCorpID_0Corel-Layer"/>
  <g id="_2303057757568">
   <path class="fil0" d="M3312 2119l-468 0 -56 -14 -5 -30 46 -51 -46 -52 46 -52 -46 -51 46 -51 -46 -52 46 -53 -46 -51 46 -52 -46 -52 46 -51 -46 -53 46 -51 -46 -52 46 -52 -46 -52 46 -51 -46 -53 46 -52 -46 -50 46 -53 -46 -53 46 -50 -46 -52 46 -52 -46 -53 46 -53 -46 -49 46 -52 -46 -52 46 -52 -46 -50 46 -53 -46 -50 46 -51 -46 -50 46 -51 -46 -52 46 -52 -46 -34 0 -16 -356 0 0 21 -46 46 46 52 -46 52 46 50 -46 52 46 49 -46 51 46 52 -46 51 46 51 -46 52 46 52 -46 51 46 51 -46 54 46 52 -46 51 46 52 -46 51 46 53 -46 50 46 53 -46 52 46 52 -46 52 46 52 -46 51 46 53 -46 51 46 52 -46 51 46 53 -46 51 46 51 -46 53 46 51 -46 53 46 51 -46 52 46 52 -46 51 -386 0c-28,0 -50,28 -50,63l0 260c0,35 22,64 50,64l551 0 0 -220 126 0 0 220 640 0c27,0 49,-29 49,-64l0 -285c0,-35 -22,-63 -49,-63z"/>
   <path class="fil0" d="M3312 2119l0 -10 -467 0 -49 -11 -3 -20 43 -47 6 -7 -46 -52 40 -44 6 -8 -46 -51 40 -45 6 -6 -46 -52 40 -47 6 -6 -46 -51 40 -46 6 -7 -46 -52 40 -44 6 -6 -46 -53 40 -45 6 -6 -46 -52 40 -45 6 -7 -46 -52 40 -45 6 -6 -46 -53 40 -46 6 -6 -46 -50 40 -46 6 -7 -46 -53 40 -44 6 -6 -46 -52 46 -52 -46 -53 40 -46 6 -7 -46 -50 40 -46 6 -5 -46 -52 40 -46 6 -6 -46 -50 40 -46 6 -7 -46 -50 40 -44 6 -7 -46 -50 40 -45 6 -6 -46 -52 40 -45 8 -8 -51 -37 0 -21 -376 0 0 26 -43 43 -6 7 46 52 -40 45 -6 7 46 50 -40 45 -6 7 46 49 -40 45 -6 6 46 52 -40 44 -6 7 46 51 -40 46 -6 7 46 51 -40 44 -6 7 46 51 -40 48 -6 6 46 52 -40 44 -6 7 46 52 -40 44 -6 7 46 53 -40 44 -6 6 46 53 -40 46 -6 6 46 52 -46 52 46 52 -40 45 -6 6 46 53 -40 45 -6 6 46 52 -40 44 -6 7 46 53 -40 44 -6 7 46 52 -40 46 -6 6 46 52 -46 52 46 51 -46 52 46 51 -38 42 -381 0c-35,0 -60,35 -60,73l0 260c0,38 25,73 60,73l561 0 0 -221 106 0 0 221 650 0c34,0 59,-34 59,-73l0 -285c0,-39 -25,-73 -59,-73l0 19c20,0 39,23 39,54l0 285c0,32 -19,53 -39,53l-630 0 0 -220 -146 0 0 220 -541 0c-21,0 -40,-21 -40,-53l0 -260c0,-32 19,-54 40,-54l391 0 48 -54 6 -6 -46 -52 40 -46 6 -6 -46 -51 40 -47 6 -6 -46 -51 40 -47 6 -6 -46 -51 40 -44 6 -7 -46 -53 40 -45 6 -6 -46 -52 40 -45 6 -6 -46 -53 40 -45 6 -7 -46 -51 40 -46 6 -6 -46 -52 40 -47 6 -5 -46 -53 40 -43 6 -7 -46 -53 40 -45 6 -6 -46 -52 40 -44 6 -6 -46 -53 40 -47 6 -7 -46 -51 40 -44 6 -7 -46 -52 40 -45 6 -7 -46 -51 40 -44 6 -6 -46 -53 40 -44 7 -7 -47 -50 40 -44 6 -7 -46 -50 40 -46 6 -6 -46 -52 40 -39 3 -3 0 -15 337 0 0 11 40 30 -38 44 -6 7 46 52 -40 43 -6 8 46 50 -40 44 -6 7 46 51 -40 45 -6 7 46 50 -40 46 -6 6 46 52 -46 52 46 49 -40 47 -6 6 46 53 -40 46 -6 6 46 52 -40 45 -6 5 46 53 -40 46 -6 7 46 50 -40 46 -6 6 46 53 -40 44 -6 7 46 52 -40 45 -6 7 46 52 -40 45 -6 6 46 53 -40 45 -6 6 46 52 -40 46 -6 6 46 51 -40 46 -6 7 46 52 -40 44 -6 7 46 51 -40 45 -6 7 46 52 -40 45 -4 3 7 34 1 7 62 15 1 0 469 0 0 -9z"/>
   <path class="fil0" d="M1452 1245c15,-28 52,-49 82,-49l398 0c30,0 67,21 82,49l177 312c15,27 3,48 -28,48l-859 0c-31,0 -44,-21 -28,-48l176 -312zm749 568c-31,0 -67,23 -82,48l-105 185c-15,26 -52,49 -82,49l-398 0c-30,0 -67,-23 -82,-49l-176 -312c-16,-26 -3,-49 28,-49l1352 0c31,0 60,-9 66,-20 6,-10 -1,-42 -15,-68l-446 -788c-15,-26 -52,-49 -82,-49l-892 0c-29,0 -66,23 -81,49l-446 788c-15,26 -15,70 0,97l446 788c15,26 52,49 81,49l892 0c30,0 67,-23 82,-49l351 -621c15,-25 2,-48 -28,-48l-383 0z"/>
   <path class="fil0" d="M1452 1245l8 4c13,-23 49,-43 74,-43l398 0c26,0 61,20 74,43l176 314 6 16 -25 17 -859 0 -25 -18 5 -15 176 -314 -8 -4 -9 -5 -176 312 -8 26c0,22 20,37 45,37l859 0c25,0 44,-15 44,-36l-8 -27 -176 -312c-18,-31 -57,-53 -91,-54l-398 0c-34,1 -73,23 -91,54l9 5zm749 568l0 -10c-35,1 -74,24 -91,54l-104 184c-13,23 -49,44 -74,44l-398 0c-25,0 -61,-21 -74,-44l-176 -312 -5 -17 25 -18 1352 0c33,0 62,-6 75,-24l3 -16 -19 -61 -446 -789c-18,-30 -55,-53 -90,-53l-892 0c-34,1 -73,23 -90,53l-446 789 -12 53 12 53 446 788c17,29 56,53 90,53l892 0c34,0 72,-24 90,-53l351 -620 8 -27c0,-21 -20,-36 -44,-37l-383 0 0 20 383 0 24 17 -5 17 -350 620c-13,23 -49,43 -74,43l-892 0c-25,0 -61,-20 -73,-43l-445 -788 -10 -43 10 -45 445 -786c12,-24 48,-46 73,-45l892 0c25,-1 61,21 74,45l445 786 16 53 0 6c0,4 -29,17 -58,16l-1352 0c-25,0 -45,14 -45,36l8 27 176 312c18,29 56,53 91,53l398 0c35,0 73,-24 91,-53l104 -184c12,-23 48,-44 74,-44l0 -10z"/>
   <path class="fil0" d="M1023 767l56 49 -56 51 56 50 -56 50 56 50 -56 50 56 51 -56 49 56 50 -56 51 56 50 -56 50 56 50 -56 49 56 51 -56 51 56 51 -56 49 56 50 -56 49 56 51 -56 48 56 51 -56 49 56 48 -56 50 56 49 -56 49 56 52 -55 44 -3 5 -100 267 -187 0 -95 -252 -56 -49 56 -49 -56 -52 56 -49 -56 -47 56 -50 -56 -49 56 -50 -56 -49 56 -51 -56 -49 56 -50 -56 -49 56 -51 -56 -50 56 -52 -56 -50 56 -49 -56 -50 56 -49 -56 -51 56 -51 -56 -50 56 -50 -56 -50 56 -50 -56 -51 56 -49 -56 -50 60 -53 0 -246 -629 0c0,0 68,-194 383,-194l0 -256c0,-40 32,-73 71,-73l729 0c39,0 70,33 70,73l0 255c315,0 383,193 383,193l-627 0 0 235z"/>
   <path class="fil0" d="M1023 767l-7 7 48 42 -48 43 -7 8 56 50 -49 43 -8 7 56 50 -48 43 -8 7 57 51 -49 42 -7 7 55 50 -48 44 -8 7 57 50 -49 43 -7 7 55 50 -48 42 -8 7 57 51 -49 45 -7 6 55 51 -48 42 -8 7 56 50 -48 42 -8 7 56 51 -48 41 -8 7 56 51 -48 42 -8 7 56 49 -48 41 -8 8 56 49 -48 43 -7 6 55 51 -46 37 -2 1 -3 7 0 1 -99 260 -173 0 -93 -247 -50 -43 48 -43 8 -6 -56 -51 48 -42 8 -8 -55 -47 47 -42 8 -8 -55 -49 47 -42 8 -7 -56 -50 48 -44 8 -7 -56 -49 48 -43 8 -7 -56 -49 49 -43 7 -8 -56 -50 48 -44 8 -8 -56 -50 48 -42 8 -7 -56 -50 48 -43 8 -6 -56 -51 48 -44 8 -7 -56 -50 48 -42 8 -8 -56 -50 48 -43 8 -6 -56 -51 48 -43 8 -7 -56 -50 51 -45 4 -3 0 -260 -639 0 0 9 9 3c0,0 16,-45 71,-93 54,-46 147,-94 303,-94l9 0 0 -266c0,-35 28,-63 62,-63l729 0c33,0 60,27 60,63l0 265 10 0c155,0 249,47 303,94 28,23 46,47 57,64l14 30 9 -5 0 -9 -637 0 0 248 3 3 7 -7 9 0 0 -224 632 0 -5 -13c0,-3 -72,-201 -392,-201l0 10 10 0 0 -255c0,-46 -36,-82 -80,-82l-729 0c-45,0 -81,36 -81,82l0 256 10 0 0 -10c-319,0 -392,199 -392,201l-5 12 633 0 0 233 -56 49 -8 7 56 51 -48 41 -8 8 56 51 -48 43 -8 7 56 50 -48 43 -8 7 56 50 -48 43 -8 8 56 51 -48 41 -8 8 56 50 -48 43 -8 6 56 50 -48 44 -8 8 56 50 -48 44 -8 7 56 49 -48 41 -8 9 56 49 -48 44 -8 7 56 49 -48 42 -8 8 56 49 -48 42 -8 8 56 47 -48 42 -8 7 56 52 -48 42 -8 7 62 55 96 255 200 0 103 -272 1 -3 54 -42 9 -8 -57 -52 48 -41 8 -8 -55 -49 47 -42 8 -8 -55 -48 47 -42 8 -7 -55 -51 47 -41 8 -7 -55 -51 47 -42 8 -7 -55 -50 47 -42 8 -7 -56 -51 48 -44 8 -7 -55 -51 47 -41 8 -8 -56 -50 48 -43 8 -7 -55 -50 47 -43 8 -8 -56 -50 56 -49 -56 -51 48 -43 8 -7 -55 -50 47 -43 8 -7 -56 -50 48 -43 8 -8 -64 -57 -6 8 9 0 -9 0z"/>
   <path class="fil1" d="M3226 97l0 -41 28 0c0,0 29,0 29,19 0,19 -33,22 -33,22l-24 0z"/>
   <path class="fil2" d="M3437 0c41,0 81,10 120,32 39,21 70,51 92,90 21,39 32,80 32,122 0,42 -10,83 -32,122 -21,39 -51,69 -90,90 -39,22 -79,32 -122,32 -42,0 -82,-10 -121,-32 -39,-21 -69,-51 -91,-90 -21,-39 -32,-80 -32,-122 0,-42 11,-83 33,-122 22,-39 52,-69 91,-90 39,-22 79,-32 120,-32zm0 40c-34,0 -67,9 -100,27 -32,17 -58,43 -76,75 -19,33 -28,67 -28,102 0,36 9,69 27,102 18,32 44,57 76,75 32,18 66,27 101,27 36,0 69,-9 102,-27 32,-18 57,-43 75,-75 18,-33 27,-66 27,-102 0,-35 -9,-69 -27,-102 -19,-32 -44,-58 -77,-75 -32,-18 -66,-27 -100,-27zm-107 339l0 -262 90 0c31,0 54,2 68,7 13,5 24,13 33,25 8,12 12,25 12,39 0,19 -7,36 -21,50 -13,14 -32,22 -54,24 9,4 16,8 22,14 11,10 23,27 39,52l32 51 -52 0 -23 -41c-18,-33 -33,-53 -45,-61 -7,-6 -19,-9 -34,-9l-24 0 0 111 -43 0zm43 -148l51 0c25,0 41,-3 50,-11 9,-7 14,-17 14,-29 0,-7 -2,-14 -7,-20 -4,-7 -10,-11 -18,-14 -7,-3 -21,-5 -42,-5l-48 0 0 79z"/>
  </g>
 </g>
</svg>
